<svg width="22" height="22" fill="none" xmlns="http://www.w3.org/2000/svg"><g clip-path="url(#clip0)"><path d="M17.729 1.18c-.77.18-1.543.362-1.83.859l-2.226 4.373L1.72 9.214l-.484 1.398 9.145.853-1.551 3.786-3.469.813-.87 1.488 2.502.268.285 1.217c.128.431.577.72.96.63l1.156-.271 1.34 2.253.87-1.488-.855-3.65 2.51-3.157 4.792 8.293.967-1.081L16.07 7.989l2.708-4.058c.291-.497.101-1.307-.09-2.121-.094-.403-.576-.72-.96-.63z"/></g><defs><clipPath id="clip0"><path fill="#fff" d="M0 0h22v22H0z"/></clipPath></defs></svg>