<svg width="45" height="45" fill="none" xmlns="http://www.w3.org/2000/svg"><path d="M28.766 28.855a3.017 3.017 0 01-1.543-.465 7.53 7.53 0 01-1.32-1.13c-.327-.324-.868-.87-1.076-.87-.208 0-.356.68-.349 1.159.003.33-.122.65-.349.893-.258.21-.573.338-.905.368H21.8a8.424 8.424 0 01-5.513-2.213c-2.73-2.487-5.075-7.238-5.171-7.445a.984.984 0 01.111-1.092c.283-.234.641-.36 1.01-.354h3.115c.25.036.49.124.704.258.202.135.363.32.468.539.32.68.686 1.34 1.098 1.97.971 1.476 1.402 1.815 1.558 1.889a5.957 5.957 0 00.14-2.118 1.983 1.983 0 00-.155-.944.99.99 0 00-.572-.214l-.541-.51c-.104-.486.438-.907.816-1.07a6.482 6.482 0 012.337-.28h.527a6.793 6.793 0 011.595.148c1.261.266 1.217 1.276 1.165 2.442 0 .34-.037.738-.037 1.195v.355c-.03.32-.007.645.067.959a6.718 6.718 0 001.535-1.83c.43-.658.807-1.35 1.128-2.066a1.168 1.168 0 011.187-.701h3.176c.093-.009.188-.009.282 0 .742 0 1.18.214 1.357.627.178.413.127 1.225-1.75 3.402l-.742.833c-.36.348-.67.742-.92 1.174.28.317.6.6.95.84a10.543 10.543 0 012.225 2.266 1.177 1.177 0 01.193 1.24 1.704 1.704 0 01-1.395.737l-2.812.037-.17-.03zm-3.94-3.572c.668 0 1.247.583 1.863 1.196.333.361.706.683 1.113.959.308.204.67.311 1.039.31h.074l2.82-.037c.138-.008.274-.043.4-.103l-.074-.118a9.779 9.779 0 00-1.989-2.007c-.883-.738-1.335-1.085-1.387-1.653-.052-.568.363-1.063 1.194-2l.742-.819a7.914 7.914 0 001.521-2.176 4.206 4.206 0 00-.497 0h-3.242a.412.412 0 00-.178 0A15.09 15.09 0 0127 21.085c-1.403 2.08-2.063 2.361-2.53 2.361a.887.887 0 01-.416-.103c-.742-.42-.742-1.358-.697-2.036v-.318c0-.48 0-.893.037-1.247.06-1.24 0-1.247-.282-1.313a6.383 6.383 0 00-1.38-.118h-.512a9.71 9.71 0 00-1.41.074.877.877 0 01.186.184 2.8 2.8 0 01.438 1.609c.096 1.217.044 2.803-.742 3.187a1.03 1.03 0 01-.446.096c-.69 0-1.372-.65-2.537-2.405a17.246 17.246 0 01-1.195-2.103l-.059-.074a.901.901 0 00-.237-.081h-3.02c.438.9 2.515 4.884 4.837 6.973a7.44 7.44 0 004.764 1.94h1.372a.743.743 0 00.2-.074v-.066c0-.2 0-1.919 1.173-2.214.09-.035.185-.06.282-.073z" fill="#192144"/></svg>