<svg width="35" height="30" viewBox="0 0 35 30" fill="none" xmlns="http://www.w3.org/2000/svg">
<g opacity="0.3">
<path d="M23.5494 1.59631C23.3796 1.42261 23.1778 1.2848 22.9557 1.19077C22.7336 1.09674 22.4955 1.04834 22.255 1.04834C22.0145 1.04834 21.7764 1.09674 21.5543 1.19077C21.3322 1.2848 21.1304 1.42261 20.9606 1.59631L8.80639 13.9962C8.6708 14.1342 8.56323 14.2982 8.48984 14.4787C8.41644 14.6592 8.37866 14.8527 8.37866 15.0481C8.37866 15.2436 8.41644 15.4371 8.48984 15.6176C8.56323 15.7981 8.6708 15.9621 8.80639 16.1001L20.9606 28.5C21.6773 29.2311 22.8327 29.2311 23.5494 28.5C24.2661 27.7688 23.6724 27.0011 22.9557 26.2699L16.5541 19.7699L12.0444 15L23.5651 3C23.5651 3 24.2661 2.31255 23.5494 1.59631Z" fill="black"/>
</g>
</svg>
