<svg width="18" height="20" viewBox="0 0 18 20" fill="none" xmlns="http://www.w3.org/2000/svg">
<g opacity="0.3">
<path d="M1.40451 4.3728C1.30608 4.47108 1.22799 4.58782 1.17471 4.71636C1.12142 4.84489 1.09399 4.98268 1.09399 5.12183C1.09399 5.26099 1.12142 5.39878 1.17471 5.52731C1.22799 5.65584 1.30608 5.77258 1.40451 5.87086L8.4311 12.9041C8.50932 12.9826 8.60224 13.0448 8.70453 13.0873C8.80682 13.1297 8.91648 13.1516 9.02722 13.1516C9.13796 13.1516 9.24761 13.1297 9.3499 13.0873C9.45219 13.0448 9.54511 12.9826 9.62334 12.9041L16.6499 5.87086C17.0642 5.45614 17.0642 4.78752 16.6499 4.3728C16.2356 3.95809 15.8005 4.30164 15.3862 4.71636L11.7029 8.42074L8.99992 11.0304L2.19994 4.36373C2.19994 4.36373 1.81038 3.95809 1.40451 4.3728Z" fill="black"/>
</g>
</svg>
