<svg width="45" height="45" viewBox="0 0 45 45" fill="none" xmlns="http://www.w3.org/2000/svg">
<path d="M24.4879 32.7695H19.1293V23.2513H17V18.5439H19.0664C18.9093 16.4116 19.3021 14.8547 20.2607 13.7922C20.7178 13.3207 21.2746 12.9439 21.8956 12.686C22.5166 12.4281 23.1881 12.2947 23.8671 12.2944H27.6229V16.8321H24.6686C24.4945 17.3871 24.428 17.9669 24.4721 18.5439H27.615V23.2513H24.4721L24.4879 32.7695ZM20.3157 31.6627H23.2857V22.1446H26.4286V19.6728H23.2857V19.1121C23.2857 17.6364 23.2857 16.3157 24.0714 15.8213L24.2207 15.7254H26.4286V13.4012H23.8986C23.3844 13.395 22.8746 13.4903 22.4023 13.6809C21.9299 13.8716 21.5054 14.1533 21.1564 14.508C20.3707 15.4155 20.0486 16.9354 20.2921 19.0383L20.3707 19.6507H18.1786V22.1446H20.3157V31.6627Z" fill="#192144"/>
</svg>
