<svg width="45" height="45" viewBox="0 0 45 45" fill="none" xmlns="http://www.w3.org/2000/svg">
<g clip-path="url(#clip0)">
<path d="M26.9601 16.0332C27.8188 16.0351 28.6418 16.3715 29.249 16.9688C29.8562 17.5662 30.1982 18.3759 30.2001 19.2207V27.0122C30.1982 27.857 29.8562 28.6667 29.249 29.2641C28.6418 29.8614 27.8188 30.1978 26.9601 30.1997H19.0401C18.1826 30.196 17.3615 29.8587 16.7558 29.2616C16.1502 28.6644 15.8092 27.8558 15.8073 27.0122V19.2207C15.8092 18.3771 16.1502 17.5685 16.7558 16.9713C17.3615 16.3742 18.1826 16.0369 19.0401 16.0332H26.9601ZM26.9601 14.9707H19.0401C17.8944 14.9707 16.7955 15.4185 15.9854 16.2155C15.1752 17.0125 14.7201 18.0935 14.7201 19.2207V27.0122C14.7201 28.1394 15.1752 29.2204 15.9854 30.0174C16.7955 30.8144 17.8944 31.2622 19.0401 31.2622H26.9601C28.1058 31.2622 29.2046 30.8144 30.0148 30.0174C30.8249 29.2204 31.2801 28.1394 31.2801 27.0122V19.2207C31.2801 18.0935 30.8249 17.0125 30.0148 16.2155C29.2046 15.4185 28.1058 14.9707 26.9601 14.9707V14.9707Z" fill="#192144"/>
<path d="M23.007 19.9849C23.6379 19.9849 24.2545 20.1689 24.7791 20.5137C25.3036 20.8585 25.7124 21.3486 25.9538 21.9219C26.1953 22.4953 26.2584 23.1262 26.1353 23.7349C26.0123 24.3436 25.7085 24.9027 25.2624 25.3416C24.8163 25.7804 24.248 26.0793 23.6293 26.2003C23.0106 26.3214 22.3692 26.2593 21.7864 26.0218C21.2036 25.7843 20.7055 25.3821 20.355 24.8661C20.0045 24.35 19.8174 23.7434 19.8174 23.1227C19.8165 22.7104 19.8983 22.3019 20.0583 21.9208C20.2182 21.5397 20.4532 21.1934 20.7495 20.9018C21.0459 20.6103 21.3979 20.3792 21.7853 20.2218C22.1727 20.0645 22.5879 19.9839 23.007 19.9849V19.9849ZM23.007 18.9224C22.1623 18.921 21.3361 19.1661 20.633 19.6268C19.9299 20.0875 19.3816 20.743 19.0573 21.5104C18.733 22.2778 18.6475 23.1226 18.8114 23.9378C18.9753 24.7531 19.3814 25.5022 19.9782 26.0903C20.575 26.6785 21.3358 27.0792 22.1642 27.2419C22.9926 27.4045 23.8515 27.3218 24.6321 27.0041C25.4127 26.6863 26.0799 26.148 26.5494 25.4571C27.0188 24.7662 27.2694 23.9538 27.2694 23.1227C27.2704 22.5715 27.1608 22.0254 26.947 21.5159C26.7333 21.0063 26.4194 20.5432 26.0236 20.1531C25.6277 19.7629 25.1575 19.4534 24.6398 19.2422C24.1222 19.0311 23.5674 18.9224 23.007 18.9224Z" fill="#192144"/>
<path d="M27.4282 19.7308C27.961 19.7308 28.393 19.3059 28.393 18.7817C28.393 18.2575 27.961 17.8325 27.4282 17.8325C26.8953 17.8325 26.4634 18.2575 26.4634 18.7817C26.4634 19.3059 26.8953 19.7308 27.4282 19.7308Z" fill="#192144"/>
</g>
<defs>
<clipPath id="clip0">
<rect width="18" height="17.7081" fill="white" transform="translate(14 14.2617)"/>
</clipPath>
</defs>
</svg>
