<svg width="45" height="45" viewBox="0 0 45 45" fill="none" xmlns="http://www.w3.org/2000/svg">
<path d="M28.7664 28.8547C28.219 28.8424 27.6854 28.6817 27.2232 28.3898C26.7407 28.0655 26.2975 27.6867 25.9026 27.2609C25.5761 26.9363 25.0345 26.3903 24.8268 26.3903C24.619 26.3903 24.4706 27.0691 24.478 27.5487C24.4812 27.8797 24.3564 28.1993 24.1293 28.4415C23.8712 28.6512 23.5561 28.7796 23.2242 28.8104H21.7997C19.7522 28.7656 17.7918 27.9784 16.2871 26.5969C13.5568 24.1104 11.2122 19.3587 11.1158 19.1521C11.0238 18.9795 10.9853 18.7837 11.0051 18.5893C11.0249 18.395 11.1021 18.2108 11.2271 18.0601C11.5099 17.8255 11.868 17.6999 12.2361 17.7059H15.2632H15.3522C15.6027 17.7423 15.8428 17.8302 16.0571 17.9642C16.2587 18.0986 16.4202 18.2847 16.5245 18.5028C16.8444 19.1838 17.2113 19.8421 17.6226 20.4728C18.5945 21.9485 19.0248 22.2879 19.1806 22.3617C19.354 21.6698 19.4017 20.9527 19.3216 20.2441C19.3476 19.9214 19.2941 19.5972 19.1658 19.2996C19.0029 19.1701 18.8029 19.0951 18.5945 19.0857L18.0529 18.5766C17.949 18.0896 18.4906 17.669 18.869 17.5067C19.6241 17.2714 20.4164 17.1764 21.2061 17.2263H21.7329C22.2686 17.2124 22.8041 17.262 23.328 17.3739C24.5893 17.6395 24.5448 18.6503 24.4929 19.8161C24.4929 20.1555 24.4558 20.554 24.4558 21.0114C24.4558 21.1221 24.4558 21.2402 24.4558 21.3656C24.4266 21.6868 24.4492 22.0106 24.5226 22.3248C25.1402 21.8109 25.6604 21.1912 26.0584 20.4949C26.4879 19.8366 26.865 19.1458 27.1861 18.429C27.2839 18.2023 27.4516 18.0123 27.6649 17.8863C27.8782 17.7603 28.1262 17.7049 28.3732 17.728H31.5487C31.6425 17.7191 31.7369 17.7191 31.8306 17.728C32.5726 17.728 33.0103 17.942 33.1884 18.3552C33.3664 18.7684 33.3145 19.58 31.4374 21.7566L30.6955 22.5904C30.336 22.9375 30.0264 23.3323 29.7755 23.7636C30.0565 24.0813 30.3754 24.3637 30.7251 24.6047C31.5778 25.2437 32.3283 26.0074 32.951 26.8699C33.097 27.0376 33.1925 27.2428 33.2266 27.4621C33.2608 27.6813 33.2321 27.9057 33.1439 28.1094C32.9884 28.3351 32.7803 28.5201 32.5375 28.6486C32.2946 28.777 32.0241 28.8452 31.749 28.8473L28.9371 28.8842L28.7664 28.8547ZM24.8268 25.2835C25.4945 25.2835 26.0732 25.8664 26.689 26.4788C27.0217 26.8401 27.3951 27.1619 27.8019 27.438C28.1096 27.6415 28.4711 27.7494 28.8406 27.7479H28.9148L31.7342 27.711C31.8732 27.7031 32.0094 27.668 32.1348 27.6077L32.0606 27.4897C31.499 26.7285 30.8292 26.0525 30.0722 25.4827C29.1893 24.7449 28.7368 24.3981 28.6848 23.83C28.6329 23.2618 29.0484 22.7675 29.8793 21.8304L30.6213 21.0114C31.2477 20.376 31.7619 19.6402 32.1422 18.8348C31.9767 18.825 31.8107 18.825 31.6451 18.8348H28.4029C28.3443 18.8218 28.2835 18.8218 28.2248 18.8348C27.8814 19.618 27.4719 20.3708 27.0006 21.0852C25.5984 23.1659 24.938 23.4463 24.4706 23.4463C24.3257 23.4463 24.183 23.4108 24.0551 23.343C23.3132 22.9224 23.3132 21.9854 23.3577 21.3066C23.3577 21.1959 23.3577 21.0852 23.3577 20.9893C23.3577 20.5097 23.3577 20.0965 23.3948 19.7423C23.4542 18.5028 23.3948 18.4954 23.1129 18.429C22.6586 18.3397 22.1958 18.3001 21.7329 18.3109H21.221C20.7499 18.3013 20.2787 18.3259 19.8113 18.3847C19.8821 18.4366 19.9446 18.4988 19.9968 18.5692C20.3028 19.049 20.4554 19.6098 20.4345 20.1777C20.531 21.3951 20.479 22.9815 19.6926 23.3651C19.5533 23.4299 19.4011 23.4627 19.2474 23.4611C18.5574 23.4611 17.8748 22.8118 16.71 21.0557C16.263 20.3833 15.8638 19.6807 15.5155 18.9529L15.4561 18.8791C15.3812 18.8411 15.3013 18.8138 15.2187 18.7979H12.251H12.199C12.6368 19.6981 14.7142 23.6824 17.0364 25.7705C18.3404 26.9619 20.0299 27.6502 21.7997 27.711H23.1722C23.2422 27.6962 23.3097 27.6713 23.3726 27.6372C23.3726 27.6372 23.3726 27.6372 23.3726 27.5708C23.3726 27.3716 23.3726 25.6524 24.5448 25.3573C24.6356 25.3218 24.7302 25.297 24.8268 25.2835Z" fill="#192144"/>
</svg>
