<svg width="25" height="22" fill="none" xmlns="http://www.w3.org/2000/svg"><g opacity=".3" clip-path="url(#clip0)"><path d="M2.411 3.481c-.13.116-.234.253-.304.403a1.121 1.121 0 000 .952c.07.15.174.288.304.403l9.3 8.253c.103.092.226.165.362.215a1.237 1.237 0 00.854 0c.135-.05.258-.123.362-.215l9.3-8.253c.548-.487.548-1.271 0-1.758-.549-.486-1.124-.083-1.673.403l-4.875 4.347-3.577 3.063-9-7.823s-.516-.476-1.053.01z" fill="#000"/></g><defs><clipPath id="clip0"><path fill="#fff" transform="matrix(0 -1 1 0 .5 22)" d="M0 0h22v24H0z"/></clipPath></defs></svg>