<svg width="45" height="45" fill="none" xmlns="http://www.w3.org/2000/svg"><ellipse cx="22.5" cy="22.624" rx="22.5" ry="22.135" fill="#FFD74B"/><path d="M24.488 32.77h-5.359V23.25H17v-4.707h2.066c-.157-2.132.236-3.69 1.195-4.752a4.883 4.883 0 011.635-1.106 5.151 5.151 0 011.971-.392h3.756v4.538h-2.954a4.554 4.554 0 00-.197 1.712h3.143v4.707h-3.143l.016 9.518zm-4.172-1.107h2.97v-9.518h3.143v-2.472h-3.143v-.56c0-1.477 0-2.797.785-3.292l.15-.096h2.208v-2.324h-2.53a3.878 3.878 0 00-1.497.28c-.472.19-.897.472-1.246.827-.785.908-1.107 2.427-.864 4.53l.079.613h-2.192v2.494h2.137v9.518z" fill="#192144"/></svg>