<svg width="23" height="24" fill="none" xmlns="http://www.w3.org/2000/svg"><path opacity=".15" d="M16.188 6c1.045 0 1.891-.895 1.891-2s-.846-2-1.89-2c-1.045 0-1.892.895-1.892 2s.847 2 1.891 2zM15.032 10.969c.217.342.528.605.892.754a1.8 1.8 0 001.139.076l3.135-.829-.457-1.94-3.135.829-1.304-2.067a1.9 1.9 0 00-1.202-.854l-3.636-.77a1.797 1.797 0 00-1.202.164c-.373.193-.675.51-.86.903l-1.568 3.316 1.691.895 1.568-3.317 1.86.394L7.144 17H2.952v2h4.192c.66 0 1.281-.372 1.622-.971l1.813-3.196 4.887 1.034 1.717 5.449 1.793-.633-1.716-5.448a2.019 2.019 0 00-.544-.867 1.86 1.86 0 00-.88-.463l-2.874-.607 1.676-2.954.394.625z" fill="#1D2E5B"/></svg>