<svg width="19" height="20" fill="none" xmlns="http://www.w3.org/2000/svg"><g clip-path="url(#clip0)"><path opacity=".15" d="M4.835 13.571c0-.394-.152-.73-.457-1.01a1.574 1.574 0 00-1.102-.418c-.43 0-.798.14-1.103.418a1.321 1.321 0 00-.457 1.01c0 .395.153.732.457 1.01.305.28.672.419 1.103.419.43 0 .798-.14 1.102-.418.305-.28.457-.616.457-1.01zm12.475 0a1.32 1.32 0 00-.457-1.01 1.574 1.574 0 00-1.103-.418c-.43 0-.797.14-1.102.418a1.32 1.32 0 00-.457 1.01c0 .395.152.732.457 1.01.305.28.672.419 1.103.419.43 0 .798-.14 1.102-.418.305-.28.457-.616.457-1.01zm-.56-4.42l-.878-4.285a.72.72 0 00-.274-.418.794.794 0 00-.493-.162H3.92a.794.794 0 00-.493.162.72.72 0 00-.274.418l-.877 4.286c-.04.223.016.42.17.591a.767.767 0 00.597.257h12.938a.767.767 0 00.597-.257.664.664 0 00.17-.591zm-2.754-6.83a.496.496 0 00-.17-.379.591.591 0 00-.415-.156H5.615c-.163 0-.3.052-.414.156a.496.496 0 00-.171.38c0 .148.057.275.17.379a.591.591 0 00.415.156h7.796c.163 0 .301-.052.415-.156a.496.496 0 00.17-.38zm4.873 8.092v6.73h-1.56v1.428c0 .395-.151.731-.456 1.01A1.574 1.574 0 0115.75 20c-.43 0-.797-.14-1.102-.419a1.32 1.32 0 01-.457-1.01v-1.428H4.835v1.428c0 .395-.152.731-.457 1.01A1.574 1.574 0 013.276 20c-.43 0-.798-.14-1.103-.419a1.321 1.321 0 01-.457-1.01v-1.428H.157v-6.73c0-.833.102-1.663.305-2.489l1.254-5.067c.073-.58.47-1.09 1.188-1.529C3.623.89 4.557.558 5.706.335 6.856.112 8.124 0 9.513 0c1.389 0 2.658.112 3.807.335 1.15.223 2.083.554 2.802.993.719.44 1.115.949 1.188 1.53l1.279 5.066c.187.759.28 1.589.28 2.489z" fill="#161C35"/></g><defs><clipPath id="clip0"><path fill="#fff" transform="translate(.154)" d="M0 0h18.72v20H0z"/></clipPath></defs></svg>