<svg width="23" height="22" fill="none" xmlns="http://www.w3.org/2000/svg"><g clip-path="url(#clip0)"><path d="M18.488 1.18c-.8.18-1.602.362-1.9.859l-2.312 4.373L1.864 9.215l-.503 1.397 9.498.853-1.611 3.786-3.602.813-.905 1.488 2.599.268.296 1.217c.133.432.599.72.996.63l1.201-.271 1.392 2.253.904-1.488-.889-3.65 2.608-3.157 4.976 8.293 1.004-1.081-3.063-12.577 2.813-4.057c.302-.498.105-1.308-.093-2.122-.099-.403-.6-.72-.997-.63z" fill="#1D2E5B"/></g><defs><clipPath id="clip0"><path fill="#fff" transform="translate(.077)" d="M0 0h22.847v22H0z"/></clipPath></defs></svg>