<svg width="45" height="45" fill="none" xmlns="http://www.w3.org/2000/svg"><ellipse cx="22.5" cy="22.624" rx="22.5" ry="22.135" fill="#FFD74B"/><path d="M28.766 28.854a3.017 3.017 0 01-1.543-.465 7.53 7.53 0 01-1.32-1.129c-.327-.324-.868-.87-1.076-.87-.208 0-.356.679-.349 1.158.003.331-.122.65-.349.893-.258.21-.573.338-.905.369H21.8a8.424 8.424 0 01-5.513-2.214c-2.73-2.486-5.075-7.238-5.171-7.444a.984.984 0 01.111-1.092c.283-.235.641-.36 1.01-.355H15.352c.25.037.49.125.704.259.202.134.363.32.468.538.32.681.686 1.34 1.098 1.97.971 1.476 1.402 1.815 1.558 1.89a5.957 5.957 0 00.14-2.118 1.983 1.983 0 00-.155-.945.99.99 0 00-.572-.214l-.541-.509c-.104-.487.438-.907.816-1.07a6.482 6.482 0 012.337-.28h.527a6.799 6.799 0 011.595.147c1.261.266 1.217 1.277 1.165 2.443 0 .339-.037.738-.037 1.195v.354c-.03.321-.007.645.067.96a6.719 6.719 0 001.535-1.83c.43-.659.807-1.35 1.128-2.067a1.168 1.168 0 011.187-.7h3.176c.093-.01.188-.01.282 0 .742 0 1.18.213 1.357.627.178.413.127 1.224-1.75 3.401l-.742.834c-.36.347-.67.742-.92 1.173.28.318.6.6.95.841a10.543 10.543 0 012.225 2.265 1.177 1.177 0 01.193 1.24 1.705 1.705 0 01-1.395.738l-2.812.037-.17-.03zm-3.94-3.571c.668 0 1.247.583 1.863 1.195.333.362.706.683 1.113.96.308.203.67.31 1.039.31h.074l2.82-.038c.138-.007.274-.043.4-.103l-.074-.118a9.779 9.779 0 00-1.989-2.007c-.883-.738-1.335-1.084-1.387-1.652-.052-.569.363-1.063 1.194-2l.742-.82a7.914 7.914 0 001.521-2.176 4.25 4.25 0 00-.497 0h-3.242a.412.412 0 00-.178 0A15.09 15.09 0 0127 21.084c-1.403 2.081-2.063 2.362-2.53 2.362a.887.887 0 01-.416-.104c-.742-.42-.742-1.357-.697-2.036v-.317c0-.48 0-.893.037-1.247.06-1.24 0-1.247-.282-1.314a6.383 6.383 0 00-1.38-.117h-.512a9.696 9.696 0 00-1.41.073c.071.052.134.114.186.185a2.8 2.8 0 01.438 1.608c.096 1.218.044 2.804-.742 3.188-.14.065-.292.097-.446.096-.69 0-1.372-.65-2.537-2.406a17.246 17.246 0 01-1.195-2.103l-.059-.073a.901.901 0 00-.237-.082h-3.02c.438.9 2.515 4.885 4.837 6.973a7.44 7.44 0 004.764 1.94h1.372a.743.743 0 00.2-.073v-.067c0-.199 0-1.918 1.173-2.213.09-.036.185-.06.282-.074z" fill="#192144"/></svg>