<svg xmlns="http://www.w3.org/2000/svg" xmlns:xlink="http://www.w3.org/1999/xlink"><defs>
<clipPath id="clip0">
<rect width="18" height="20" fill="white"/>
</clipPath>

<clipPath id="clip0">
<rect width="22" height="24" fill="white" transform="translate(0.5 22) rotate(-90)"/>
</clipPath>

<clipPath id="clip0">
<rect width="18" height="17.7081" fill="white" transform="translate(14 14.2617)"/>
</clipPath>

<clipPath id="clip0">
<rect width="22" height="22" fill="white"/>
</clipPath>
</defs><symbol id="academy-logo" viewBox="0 0 27 34">
<path d="M13.6426 0.0157537L13.5 0L0 1.40733V26.0129L13.5 34L27 26.0129V1.40733L13.6426 0.0157537ZM25.2344 25.0151L13.5 31.9573L1.76561 25.0151V14.9293L13.4507 21.8451L13.4701 23.0984L5.45351 18.3548L5.44295 19.5801L13.4894 24.3885L13.5088 25.675L5.46408 20.9174L5.45351 22.1427L13.5 26.9511L21.6239 22.1182V20.8929V16.909L25.2432 14.7595L25.2344 25.0151ZM25.2344 13.4519L22.0147 15.3319L20.5325 16.2071L13.4666 12.0201L13.456 13.2454L19.4957 16.818L19.4429 16.8495L19.3126 16.9247L18.4536 17.4166L13.4666 14.4689L13.456 15.6942L17.3921 18.0222L16.4591 18.6314L16.438 18.6436L13.4666 16.902L13.456 18.1273L15.4029 19.2615L13.4155 20.4483L1.7973 13.5762L13.4349 6.61831L25.2344 13.4519ZM25.2344 12.2266L13.4401 5.31075L1.76561 12.2196V2.9897L13.5 1.76442L25.2344 2.9897V12.2266Z" fill="#192144"/>
</symbol><symbol id="active-like" viewBox="0 0 20 20">
<path d="M5 1.25C7.7625 1.25 10 3.44375 10 6.15C10 3.44375 12.2375 1.25 15 1.25C17.7625 1.25 20 3.44375 20 6.15C20 10.2288 15.9575 11.6675 10.49 18.16C10.4298 18.2313 10.3548 18.2886 10.2701 18.3279C10.1855 18.3672 10.0933 18.3876 10 18.3876C9.90668 18.3876 9.81449 18.3672 9.72986 18.3279C9.64523 18.2886 9.57019 18.2313 9.51 18.16C4.0425 11.6675 0 10.2288 0 6.15C0 3.44375 2.2375 1.25 5 1.25Z" fill="#F02323"/>
</symbol><symbol id="back-arrow" viewBox="0 0 32 16">
<path fill-rule="evenodd" clip-rule="evenodd" d="M4 16H28C30.2091 16 32 14.2091 32 12V7C32 4.79086 30.2091 3 28 3H4V5H28C29.1046 5 30 5.89543 30 7V12C30 13.1046 29.1046 14 28 14H4V16Z" fill="white"/>
<path d="M0 4L9 0.535898V7.4641L0 4Z" fill="white"/>
</symbol><symbol id="bicycle" viewBox="0 0 25 25">
<path d="M18.9453 21.875C18.0568 21.875 17.1883 21.6115 16.4496 21.1179C15.7109 20.6243 15.1351 19.9227 14.7951 19.1019C14.4551 18.2811 14.3661 17.3778 14.5394 16.5064C14.7128 15.635 15.1406 14.8346 15.7689 14.2064C16.3971 13.5781 17.1975 13.1503 18.0689 12.9769C18.9403 12.8036 19.8436 12.8926 20.6644 13.2326C21.4852 13.5726 22.1868 14.1484 22.6804 14.8871C23.174 15.6258 23.4375 16.4943 23.4375 17.3828C23.4362 18.5738 22.9625 19.7157 22.1203 20.5578C21.2782 21.4 20.1363 21.8737 18.9453 21.875ZM18.9453 14.4531C18.3659 14.4531 17.7995 14.6249 17.3177 14.9469C16.8359 15.2688 16.4604 15.7263 16.2386 16.2617C16.0169 16.797 15.9589 17.3861 16.0719 17.9544C16.185 18.5227 16.464 19.0447 16.8737 19.4544C17.2834 19.8641 17.8055 20.1432 18.3738 20.2562C18.9421 20.3692 19.5311 20.3112 20.0665 20.0895C20.6018 19.8678 21.0593 19.4922 21.3813 19.0105C21.7032 18.5287 21.875 17.9623 21.875 17.3828C21.8741 16.6061 21.5651 15.8614 21.0159 15.3122C20.4667 14.763 19.722 14.454 18.9453 14.4531Z"/>
<path d="M6.05469 21.875C5.16622 21.875 4.2977 21.6115 3.55896 21.1179C2.82023 20.6243 2.24445 19.9227 1.90445 19.1019C1.56445 18.2811 1.47549 17.3778 1.64882 16.5064C1.82215 15.635 2.24999 14.8346 2.87823 14.2064C3.50648 13.5781 4.30691 13.1503 5.17831 12.9769C6.04971 12.8036 6.95294 12.8926 7.77378 13.2326C8.59461 13.5726 9.2962 14.1484 9.78981 14.8871C10.2834 15.6258 10.5469 16.4943 10.5469 17.3828C10.5456 18.5738 10.0719 19.7157 9.22972 20.5578C8.38755 21.4 7.24569 21.8737 6.05469 21.875ZM6.05469 14.4531C5.47525 14.4531 4.90883 14.6249 4.42704 14.9469C3.94526 15.2688 3.56975 15.7263 3.34801 16.2617C3.12627 16.797 3.06825 17.3861 3.1813 17.9544C3.29434 18.5227 3.57336 19.0447 3.98309 19.4544C4.39281 19.8641 4.91483 20.1432 5.48314 20.2562C6.05144 20.3692 6.6405 20.3112 7.17583 20.0895C7.71116 19.8678 8.16872 19.4922 8.49064 19.0105C8.81255 18.5287 8.98438 17.9623 8.98438 17.3828C8.98347 16.6061 8.67452 15.8614 8.12529 15.3122C7.57607 14.763 6.83141 14.454 6.05469 14.4531Z"/>
<path d="M15.625 6.25005C15.8308 6.25076 16.0347 6.21067 16.2249 6.1321C16.4151 6.05352 16.5879 5.93802 16.7332 5.79227C16.8785 5.64651 16.9934 5.47341 17.0714 5.28295C17.1494 5.09249 17.1889 4.88847 17.1875 4.68267C17.1898 4.4779 17.1512 4.27473 17.0741 4.08504C16.9969 3.89535 16.8827 3.72295 16.7381 3.57792C16.5935 3.43289 16.4215 3.31814 16.232 3.24038C16.0426 3.16262 15.8395 3.12341 15.6348 3.12505C15.4296 3.12441 15.2263 3.16419 15.0365 3.24212C14.8466 3.32005 14.674 3.4346 14.5285 3.57924C14.3829 3.72388 14.2673 3.89577 14.1882 4.0851C14.1091 4.27442 14.068 4.47748 14.0674 4.68267C14.0667 4.88786 14.1065 5.09116 14.1845 5.28098C14.2624 5.4708 14.3769 5.64341 14.5216 5.78895C14.6662 5.9345 14.8381 6.05013 15.0274 6.12924C15.2168 6.20836 15.4198 6.24941 15.625 6.25005Z"/>
<path d="M17.9468 9.37504H15.8101C15.775 9.37505 15.7406 9.36563 15.7104 9.34776C15.6803 9.32989 15.6555 9.30423 15.6387 9.27348L14.0889 6.43315C13.9797 6.22207 13.8223 6.03967 13.6295 5.90071C13.4367 5.76175 13.2139 5.67014 12.9791 5.6333C12.7444 5.59645 12.5042 5.6154 12.2781 5.68862C12.052 5.76183 11.8463 5.88725 11.6777 6.05473L8.2666 9.49223C7.98003 9.78473 7.81736 10.1765 7.8125 10.586C7.8125 11.4356 8.42773 11.7383 8.71582 11.9092C10.1074 12.711 11.0874 13.2974 11.625 13.6231C11.6536 13.6405 11.6772 13.6649 11.6936 13.6941C11.71 13.7233 11.7187 13.7561 11.7188 13.7896V17.1646C11.7188 17.585 12.042 17.9458 12.4624 17.9668C12.568 17.9719 12.6734 17.9555 12.7725 17.9187C12.8715 17.8818 12.962 17.8253 13.0386 17.7524C13.1151 17.6796 13.1761 17.5919 13.2178 17.4949C13.2595 17.3978 13.2811 17.2932 13.2813 17.1875V12.9883C13.2813 12.8643 13.2519 12.742 13.1953 12.6317C13.1388 12.5213 13.0568 12.426 12.9561 12.3536L11.1494 11.0542C11.1267 11.038 11.1078 11.0171 11.0939 10.993C11.0799 10.9688 11.0713 10.942 11.0687 10.9142C11.066 10.8864 11.0693 10.8584 11.0783 10.8321C11.0874 10.8057 11.1019 10.7815 11.1211 10.7613L13.1719 8.57426C13.1929 8.55176 13.219 8.53455 13.2479 8.52404C13.2768 8.51352 13.3079 8.51001 13.3384 8.51377C13.369 8.51753 13.3982 8.52846 13.4238 8.54568C13.4493 8.5629 13.4704 8.58591 13.4854 8.61284L14.5508 10.5357C14.6185 10.6576 14.7176 10.7591 14.8378 10.8298C14.958 10.9005 15.0949 10.9377 15.2344 10.9375H17.9688C18.0746 10.9377 18.1793 10.9163 18.2767 10.8747C18.374 10.8331 18.4618 10.7722 18.5349 10.6956C18.608 10.619 18.6647 10.5284 18.7017 10.4292C18.7387 10.3301 18.7551 10.2244 18.75 10.1187C18.7295 9.69829 18.3672 9.37504 17.9468 9.37504Z"/>
</symbol><symbol id="burger" viewBox="0 0 23 15">
<rect x="11" width="12" height="3" fill="#192144"/>
<rect x="11" y="12" width="12" height="3" fill="#192144"/>
<rect y="6" width="12" height="3" fill="#192144"/>
<rect x="6" width="3" height="3" fill="#192144"/>
<rect x="6" y="12" width="3" height="3" fill="#192144"/>
<rect x="14" y="6" width="3" height="3" fill="#192144"/>
<rect width="4" height="3" fill="#192144"/>
<rect y="12" width="4" height="3" fill="#192144"/>
<rect x="19" y="6" width="4" height="3" fill="#192144"/>
</symbol><symbol id="bus" viewBox="0 0 18 20">
<g clip-path="url(#clip0)">
<path d="M4.50106 13.5714C4.50106 13.1771 4.35463 12.8404 4.06179 12.5614C3.76894 12.2824 3.41557 12.1429 3.00168 12.1429C2.58779 12.1429 2.23442 12.2824 1.94158 12.5614C1.64873 12.8404 1.50231 13.1771 1.50231 13.5714C1.50231 13.9658 1.64873 14.3025 1.94158 14.5815C2.23442 14.8605 2.58779 15 3.00168 15C3.41557 15 3.76894 14.8605 4.06179 14.5815C4.35463 14.3025 4.50106 13.9658 4.50106 13.5714ZM16.4961 13.5714C16.4961 13.1771 16.3496 12.8404 16.0568 12.5614C15.7639 12.2824 15.4106 12.1429 14.9967 12.1429C14.5828 12.1429 14.2294 12.2824 13.9366 12.5614C13.6437 12.8404 13.4973 13.1771 13.4973 13.5714C13.4973 13.9658 13.6437 14.3025 13.9366 14.5815C14.2294 14.8605 14.5828 15 14.9967 15C15.4106 15 15.7639 14.8605 16.0568 14.5815C16.3496 14.3025 16.4961 13.9658 16.4961 13.5714ZM15.9572 9.15179L15.1138 4.86607C15.0748 4.69494 14.9869 4.55543 14.8503 4.44754C14.7136 4.33966 14.5555 4.28571 14.3758 4.28571H3.62252C3.4429 4.28571 3.28477 4.33966 3.1481 4.44754C3.01144 4.55543 2.92359 4.69494 2.88454 4.86607L2.04114 9.15179C2.0021 9.375 2.05676 9.57217 2.20514 9.7433C2.35351 9.91443 2.54484 10 2.77912 10H15.2192C15.4535 10 15.6449 9.91443 15.7932 9.7433C15.9416 9.57217 15.9963 9.375 15.9572 9.15179ZM13.3099 2.32143C13.3099 2.17262 13.2552 2.04613 13.1459 1.94196C13.0366 1.8378 12.9038 1.78571 12.7476 1.78571H5.25074C5.09456 1.78571 4.9618 1.8378 4.85247 1.94196C4.74314 2.04613 4.68848 2.17262 4.68848 2.32143C4.68848 2.47024 4.74314 2.59673 4.85247 2.70089C4.9618 2.80506 5.09456 2.85714 5.25074 2.85714H12.7476C12.9038 2.85714 13.0366 2.80506 13.1459 2.70089C13.2552 2.59673 13.3099 2.47024 13.3099 2.32143ZM17.9954 10.4129V17.1429H16.4961V18.5714C16.4961 18.9658 16.3496 19.3025 16.0568 19.5815C15.7639 19.8605 15.4106 20 14.9967 20C14.5828 20 14.2294 19.8605 13.9366 19.5815C13.6437 19.3025 13.4973 18.9658 13.4973 18.5714V17.1429H4.50106V18.5714C4.50106 18.9658 4.35463 19.3025 4.06179 19.5815C3.76894 19.8605 3.41557 20 3.00168 20C2.58779 20 2.23442 19.8605 1.94158 19.5815C1.64873 19.3025 1.50231 18.9658 1.50231 18.5714V17.1429H0.00292969V10.4129C0.00292969 9.57961 0.100545 8.75 0.295776 7.92411L1.50231 2.85714C1.57259 2.27679 1.95329 1.76711 2.64441 1.32812C3.33553 0.889137 4.23359 0.558036 5.3386 0.334821C6.44361 0.111607 7.6638 0 8.99918 0C10.3346 0 11.5548 0.111607 12.6598 0.334821C13.7648 0.558036 14.6628 0.889137 15.354 1.32812C16.0451 1.76711 16.4258 2.27679 16.4961 2.85714L17.726 7.92411C17.9056 8.68304 17.9954 9.51265 17.9954 10.4129Z"/>
</g>

</symbol><symbol id="businessman" viewBox="0 0 68 68">
<path d="M43.3758 43.2418V39.8933C43.3758 38.9558 43.2418 38.0182 42.7061 37.0806C42.1703 36.143 41.5006 35.3394 40.5631 34.8036C39.6255 34.1339 37.6164 34 36.6788 34L34.5358 36.277L35.3394 38.0182V42.0364L34 43.5097L32.6606 42.0364V38.0182L33.5982 36.277L31.3212 34C30.2497 34 28.2406 34.1339 27.3031 34.8036C26.3655 35.3394 25.8297 36.143 25.294 37.0806C24.7582 38.0182 24.6243 38.8218 24.6243 39.8933V43.2418C24.6243 43.2418 28.1067 44.7151 34 44.7151C39.8934 44.7151 43.3758 43.2418 43.3758 43.2418Z" fill="#132576"/>
<path d="M34 23.4189C31.4551 23.4189 29.9818 25.8299 30.3836 28.5086C30.7854 31.1874 32.1248 33.0626 34 33.0626C35.8751 33.0626 37.2145 31.1874 37.6163 28.5086C38.0181 25.6959 36.5448 23.4189 34 23.4189Z" fill="#132576"/>
</symbol><symbol id="button-arrow" viewBox="0 0 11 14">
<path d="M11 7L0.5 13.0622V0.937822L11 7Z"/>
</symbol><symbol id="calendar-arrow" viewBox="0 0 35 30">
<g>
<path d="M23.5494 1.59631C23.3796 1.42261 23.1778 1.2848 22.9557 1.19077C22.7336 1.09674 22.4955 1.04834 22.255 1.04834C22.0145 1.04834 21.7764 1.09674 21.5543 1.19077C21.3322 1.2848 21.1304 1.42261 20.9606 1.59631L8.80639 13.9962C8.6708 14.1342 8.56323 14.2982 8.48984 14.4787C8.41644 14.6592 8.37866 14.8527 8.37866 15.0481C8.37866 15.2436 8.41644 15.4371 8.48984 15.6176C8.56323 15.7981 8.6708 15.9621 8.80639 16.1001L20.9606 28.5C21.6773 29.2311 22.8327 29.2311 23.5494 28.5C24.2661 27.7688 23.6724 27.0011 22.9557 26.2699L16.5541 19.7699L12.0444 15L23.5651 3C23.5651 3 24.2661 2.31255 23.5494 1.59631Z"/>
</g>
</symbol><symbol id="check-mark-hover" viewBox="0 0 36 36">
<g opacity="0.3">
<path d="M16.3868 24.1809L13 20.5V20V19C13 19.0409 13 18.9591 13 19C13 18.7852 13.0001 18.5 13.0001 18.5V17.5L16.3774 20.7561C16.4931 20.8776 16.6816 20.8761 16.7974 20.7547L24.0001 13V15.0727V16C24.0001 16.5 24.0001 16.5 24.0001 16.5L17.8084 23.1208L17.8097 23.1222L16.8068 24.1795C16.691 24.3009 16.5026 24.3009 16.3868 24.1809Z" fill="#161C35"/>
</g>
</symbol><symbol id="check-mark" viewBox="0 0 36 36">
<path d="M16.3867 24.1809L12.9999 20.5V20V19C12.9999 19.0409 12.9999 18.9591 12.9999 19C12.9999 18.7852 13 18.5 13 18.5V17.5L16.3773 20.7561C16.4931 20.8776 16.6815 20.8761 16.7973 20.7547L24 13V15.0727V16C24 16.5 24 16.5 24 16.5L17.8083 23.1208L17.8097 23.1222L16.8067 24.1795C16.691 24.3009 16.5025 24.3009 16.3867 24.1809Z" fill="#161C35"/>
</symbol><symbol id="country-arrow" viewBox="0 0 18 20">
<g opacity="0.3">
<path d="M1.40451 4.3728C1.30608 4.47108 1.22799 4.58782 1.17471 4.71636C1.12142 4.84489 1.09399 4.98268 1.09399 5.12183C1.09399 5.26099 1.12142 5.39878 1.17471 5.52731C1.22799 5.65584 1.30608 5.77258 1.40451 5.87086L8.4311 12.9041C8.50932 12.9826 8.60224 13.0448 8.70453 13.0873C8.80682 13.1297 8.91648 13.1516 9.02722 13.1516C9.13796 13.1516 9.24761 13.1297 9.3499 13.0873C9.45219 13.0448 9.54511 12.9826 9.62334 12.9041L16.6499 5.87086C17.0642 5.45614 17.0642 4.78752 16.6499 4.3728C16.2356 3.95809 15.8005 4.30164 15.3862 4.71636L11.7029 8.42074L8.99992 11.0304L2.19994 4.36373C2.19994 4.36373 1.81038 3.95809 1.40451 4.3728Z" fill="black"/>
</g>
</symbol><symbol id="country-full-arrow" viewBox="0 0 8 11">
<path d="M3.64645 10.3536C3.84171 10.5488 4.15829 10.5488 4.35355 10.3536L7.53553 7.17157C7.7308 6.97631 7.7308 6.65973 7.53553 6.46447C7.34027 6.2692 7.02369 6.2692 6.82843 6.46447L4 9.29289L1.17157 6.46447C0.976311 6.2692 0.659728 6.2692 0.464466 6.46447C0.269204 6.65973 0.269204 6.97631 0.464466 7.17157L3.64645 10.3536ZM3.5 0L3.5 10H4.5L4.5 0L3.5 0Z" fill="#CBCED9"/>
</symbol><symbol id="cross" viewBox="0 0 25 22">
<g clip-path="url(#clip0)">
<path d="M21.5 2.75L3.5 19.25" stroke="#192144" stroke-width="2.8" stroke-linecap="round" stroke-linejoin="round"/>
<path d="M3.5 2.75L21.5 19.25" stroke="#192144" stroke-width="2.8" stroke-linecap="round" stroke-linejoin="round"/>
</g>

</symbol><symbol id="delete" viewBox="0 0 9 9">
<path d="M7.875 1.125L1.125 7.875" stroke-linecap="round" stroke-linejoin="round"/>
<path d="M1.125 1.125L7.875 7.875" stroke-linecap="round" stroke-linejoin="round"/>
</symbol><symbol id="email-1" viewBox="0 0 40 40">
<path d="M12.0166 15.3253L18.7666 19.5557C18.9934 19.6975 19.2868 19.7647 19.582 19.7647C19.8772 19.7647 20.1706 19.6975 20.3974 19.5557L27.1474 15.3253C27.5875 15.0491 28.0033 13.975 27.196 13.975H11.9689C11.1616 13.975 11.5774 15.0491 12.0166 15.3253ZM27.3517 17.6384L20.3974 21.8668C20.0914 22.0537 19.8772 22.0757 19.582 22.0757C19.2868 22.0757 19.0726 22.0537 18.7666 21.8668C18.4606 21.6799 12.3469 17.9408 11.8474 17.6374C11.4964 17.4232 11.5 17.6741 11.5 17.8673V25.525C11.5 25.966 12.0094 26.575 12.4 26.575H26.8C27.1906 26.575 27.7 25.966 27.7 25.525V17.8684C27.7 17.6752 27.7036 17.4242 27.3517 17.6384Z" fill="#161C35"/>
</symbol><symbol id="email-2" viewBox="0 0 45 45">
<path fill-rule="evenodd" clip-rule="evenodd" d="M30.1393 27.4663L25.8089 23.5L30.1393 19.5337L29.5488 18.9026L23.25 24.6719L16.9512 18.9026L16.3607 19.5337L20.6911 23.5L16.3607 27.4663L16.9512 28.0974L21.3308 24.0859L23.25 25.8438L25.1691 24.0859L29.5488 28.0974L30.1393 27.4663ZM15.5759 17.25C14.7669 17.25 14.1111 17.9488 14.1111 18.8079V28.1921C14.1111 29.0525 14.7616 29.75 15.5759 29.75H30.924C31.733 29.75 32.3889 29.0512 32.3889 28.1921V18.8079C32.3889 17.9475 31.7383 17.25 30.924 17.25H15.5759Z"/>
</symbol><symbol id="facebook" viewBox="0 0 45 45">
<path d="M24.4879 32.7695H19.1293V23.2513H17V18.5439H19.0664C18.9093 16.4116 19.3021 14.8547 20.2607 13.7922C20.7178 13.3207 21.2746 12.9439 21.8956 12.686C22.5166 12.4281 23.1881 12.2947 23.8671 12.2944H27.6229V16.8321H24.6686C24.4945 17.3871 24.428 17.9669 24.4721 18.5439H27.615V23.2513H24.4721L24.4879 32.7695ZM20.3157 31.6627H23.2857V22.1446H26.4286V19.6728H23.2857V19.1121C23.2857 17.6364 23.2857 16.3157 24.0714 15.8213L24.2207 15.7254H26.4286V13.4012H23.8986C23.3844 13.395 22.8746 13.4903 22.4023 13.6809C21.9299 13.8716 21.5054 14.1533 21.1564 14.508C20.3707 15.4155 20.0486 16.9354 20.2921 19.0383L20.3707 19.6507H18.1786V22.1446H20.3157V31.6627Z" fill="#192144"/>
</symbol><symbol id="follower" viewBox="0 0 24 24">
<path opacity="0.1" d="M7.5 6.73684C7.5 9.34842 9.519 11.4737 12 11.4737C14.481 11.4737 16.5 9.34842 16.5 6.73684C16.5 4.12526 14.481 2 12 2C9.519 2 7.5 4.12526 7.5 6.73684ZM20 22H21V20.9474C21 16.8853 17.859 13.5789 14 13.5789H10C6.14 13.5789 3 16.8853 3 20.9474V22H20Z" fill="#192144"/>
</symbol><symbol id="instagram" viewBox="0 0 45 45">
<g clip-path="url(#clip0)">
<path d="M26.9601 16.0332C27.8188 16.0351 28.6418 16.3715 29.249 16.9688C29.8562 17.5662 30.1982 18.3759 30.2001 19.2207V27.0122C30.1982 27.857 29.8562 28.6667 29.249 29.2641C28.6418 29.8614 27.8188 30.1978 26.9601 30.1997H19.0401C18.1826 30.196 17.3615 29.8587 16.7558 29.2616C16.1502 28.6644 15.8092 27.8558 15.8073 27.0122V19.2207C15.8092 18.3771 16.1502 17.5685 16.7558 16.9713C17.3615 16.3742 18.1826 16.0369 19.0401 16.0332H26.9601ZM26.9601 14.9707H19.0401C17.8944 14.9707 16.7955 15.4185 15.9854 16.2155C15.1752 17.0125 14.7201 18.0935 14.7201 19.2207V27.0122C14.7201 28.1394 15.1752 29.2204 15.9854 30.0174C16.7955 30.8144 17.8944 31.2622 19.0401 31.2622H26.9601C28.1058 31.2622 29.2046 30.8144 30.0148 30.0174C30.8249 29.2204 31.2801 28.1394 31.2801 27.0122V19.2207C31.2801 18.0935 30.8249 17.0125 30.0148 16.2155C29.2046 15.4185 28.1058 14.9707 26.9601 14.9707V14.9707Z" fill="#192144"/>
<path d="M23.007 19.9849C23.6379 19.9849 24.2545 20.1689 24.7791 20.5137C25.3036 20.8585 25.7124 21.3486 25.9538 21.9219C26.1953 22.4953 26.2584 23.1262 26.1353 23.7349C26.0123 24.3436 25.7085 24.9027 25.2624 25.3416C24.8163 25.7804 24.248 26.0793 23.6293 26.2003C23.0106 26.3214 22.3692 26.2593 21.7864 26.0218C21.2036 25.7843 20.7055 25.3821 20.355 24.8661C20.0045 24.35 19.8174 23.7434 19.8174 23.1227C19.8165 22.7104 19.8983 22.3019 20.0583 21.9208C20.2182 21.5397 20.4532 21.1934 20.7495 20.9018C21.0459 20.6103 21.3979 20.3792 21.7853 20.2218C22.1727 20.0645 22.5879 19.9839 23.007 19.9849V19.9849ZM23.007 18.9224C22.1623 18.921 21.3361 19.1661 20.633 19.6268C19.9299 20.0875 19.3816 20.743 19.0573 21.5104C18.733 22.2778 18.6475 23.1226 18.8114 23.9378C18.9753 24.7531 19.3814 25.5022 19.9782 26.0903C20.575 26.6785 21.3358 27.0792 22.1642 27.2419C22.9926 27.4045 23.8515 27.3218 24.6321 27.0041C25.4127 26.6863 26.0799 26.148 26.5494 25.4571C27.0188 24.7662 27.2694 23.9538 27.2694 23.1227C27.2704 22.5715 27.1608 22.0254 26.947 21.5159C26.7333 21.0063 26.4194 20.5432 26.0236 20.1531C25.6277 19.7629 25.1575 19.4534 24.6398 19.2422C24.1222 19.0311 23.5674 18.9224 23.007 18.9224Z" fill="#192144"/>
<path d="M27.4282 19.7308C27.961 19.7308 28.393 19.3059 28.393 18.7817C28.393 18.2575 27.961 17.8325 27.4282 17.8325C26.8953 17.8325 26.4634 18.2575 26.4634 18.7817C26.4634 19.3059 26.8953 19.7308 27.4282 19.7308Z" fill="#192144"/>
</g>

</symbol><symbol id="like" viewBox="0 0 20 20">
<g>
<path fill-rule="evenodd" clip-rule="evenodd" d="M10 8.12436L11.1175 5.77557C11.395 5.19396 11.8762 4.35764 12.5575 3.68149C13.2275 3.01585 14.03 2.5629 15 2.5629C17.095 2.5629 18.75 4.30381 18.75 6.39658C18.75 7.9865 18.0575 9.10903 16.415 10.8211C15.9937 11.2596 15.5138 11.7335 14.9825 12.2561C13.5975 13.6215 11.875 15.3204 10 17.5917C8.125 15.3204 6.4025 13.6215 5.0175 12.2561C4.48625 11.7335 4.005 11.2583 3.585 10.8211C1.9425 9.10903 1.25 7.9865 1.25 6.39658C1.25 4.30381 2.905 2.5629 5 2.5629C5.97 2.5629 6.7725 3.01585 7.4425 3.68149C8.12375 4.35764 8.605 5.19396 8.8825 5.77557L10 8.12436ZM10.49 19.0109C10.4298 19.0858 10.3548 19.146 10.2701 19.1873C10.1855 19.2286 10.0933 19.25 10 19.25C9.90668 19.25 9.81449 19.2286 9.72986 19.1873C9.64523 19.146 9.57019 19.0858 9.51 19.0109C7.50875 16.5138 5.6975 14.7283 4.20625 13.2591C1.625 10.7134 0 9.11297 0 6.39658C0 3.55414 2.2375 1.25 5 1.25C7 1.25 8.39875 2.62855 9.255 3.88631C9.58 4.36552 9.8275 4.82635 10 5.18871C10.2162 4.73519 10.4653 4.29978 10.745 3.88631C11.6012 2.62723 13 1.25 15 1.25C17.7625 1.25 20 3.55414 20 6.39658C20 9.11297 18.375 10.7134 15.7938 13.2591C14.3025 14.7296 12.4913 16.5151 10.49 19.0096V19.0109Z"/>
</g>
</symbol><symbol id="lvl-25" viewBox="0 0 34 34">
<path d="M32 32C32 28.0603 31.224 24.1593 29.7164 20.5195C28.2087 16.8797 25.999 13.5726 23.2132 10.7868C20.4274 8.00104 17.1203 5.79125 13.4805 4.28361C9.84073 2.77597 5.93965 2 2 2" stroke="#FF8D30" stroke-width="3" stroke-linecap="round"/>
</symbol><symbol id="lvl-50" viewBox="0 0 34 64">
<path d="M2 62C9.95649 62 17.5871 58.8393 23.2132 53.2132C28.8393 47.5871 32 39.9565 32 32C32 24.0435 28.8393 16.4129 23.2132 10.7868C17.5871 5.16071 9.9565 2 2.00001 2" stroke="#FF8D30" stroke-width="3" stroke-linecap="round"/>
</symbol><symbol id="lvl-80" viewBox="0 0 64 64">
<path d="M3.70258 22.0373C1.59908 28.0119 1.44062 34.499 3.24989 40.5692C5.05916 46.6394 8.74332 51.9812 13.7745 55.8292C18.8058 59.6773 24.9259 61.8342 31.258 61.9908C37.5902 62.1475 43.8095 60.2959 49.0248 56.7013C54.2402 53.1068 58.184 47.9537 60.2912 41.9804C62.3984 36.0071 62.5609 29.5201 60.7555 23.4487C58.95 17.3774 55.2691 12.0333 50.2403 8.18214C45.2115 4.33094 39.0927 2.17025 32.7607 2.00965" stroke="#FF8D30" stroke-width="3" stroke-linecap="round"/>
</symbol><symbol id="lvl-99" viewBox="0 0 64 64">
<path d="M28.8987 2.16073C21.1662 2.9644 14.0475 6.73843 9.04287 12.6876C4.03823 18.6367 1.53845 26.2963 2.07028 34.0523C2.60211 41.8083 6.12403 49.055 11.8939 54.2653C17.6637 59.4756 25.2309 62.2426 33.0008 61.9833C40.7707 61.724 48.1365 58.4585 53.5461 52.875C58.9556 47.2916 61.9865 39.8262 62 32.052C62.0134 24.2778 59.0084 16.8019 53.6182 11.1997C48.228 5.59756 40.8736 2.3066 33.1046 2.02034" stroke="#FF8D30" stroke-width="3" stroke-linecap="round"/>
</symbol><symbol id="map-pin" viewBox="0 0 45 45">
<circle cx="22.5" cy="22.5" r="22.5" fill="#121936"/>
<path d="M22.5 12C18.1517 12 14.625 15.5267 14.625 19.875C14.625 24.9334 18.4285 27.1449 19.2692 28.1538C21.2885 30.5769 21.4026 33 22.5 33C23.5974 33 23.7115 30.5769 25.7308 28.1538C26.5715 27.1449 30.375 24.9334 30.375 19.875C30.375 15.5267 26.8483 12 22.5 12ZM22.5 25.125C19.6007 25.125 17.25 22.7743 17.25 19.875C17.25 16.9757 19.6007 14.625 22.5 14.625C25.3993 14.625 27.75 16.9757 27.75 19.875C27.75 22.7743 25.3993 25.125 22.5 25.125ZM22.5 17.25C21.051 17.25 19.875 18.426 19.875 19.875C19.875 21.324 21.051 22.5 22.5 22.5C23.949 22.5 25.125 21.324 25.125 19.875C25.125 18.426 23.949 17.25 22.5 17.25Z" fill="#FFD74B"/>
<ellipse cx="22.5" cy="19.875" rx="0.875001" ry="0.875" fill="#161C35"/>
</symbol><symbol id="option-arrow" viewBox="0 0 10 5">
<path d="M5 5L0.669872 0.5L9.33013 0.5L5 5Z" fill="#192144"/>
</symbol><symbol id="phone-1" viewBox="0 0 40 40">
<path d="M19.7743 19.2239C19.7743 19.4129 19.9279 19.5614 20.1157 19.5614C20.5048 19.5614 20.8189 19.8753 20.8189 20.2566C20.8189 20.4423 20.9725 20.5941 21.1603 20.5941C21.348 20.5941 21.5017 20.4423 21.5017 20.2566C21.5017 19.5006 20.8804 18.8864 20.1157 18.8864C19.9279 18.8864 19.7743 19.0383 19.7743 19.2239ZM25.332 20.5941C25.5231 20.5941 25.6733 20.4423 25.6733 20.2566C25.6733 17.2259 23.1813 14.7621 20.1157 14.7621C19.9279 14.7621 19.7743 14.914 19.7743 15.0996C19.7743 15.2853 19.9279 15.4371 20.1157 15.4371C22.8057 15.4371 24.9906 17.6005 24.9906 20.2566C24.9906 20.4423 25.1442 20.5941 25.332 20.5941Z" fill="#161C35"/>
<path d="M22.9047 20.2566C22.9047 20.4422 23.0583 20.5941 23.2461 20.5941C23.4339 20.5941 23.5875 20.4422 23.5875 20.2566C23.5875 18.3632 22.0308 16.8242 20.1157 16.8242C19.9279 16.8242 19.7743 16.9761 19.7743 17.1617C19.7743 17.3507 19.9279 17.4992 20.1157 17.4992C21.6553 17.4992 22.9047 18.7379 22.9047 20.2566ZM20.1157 12.7C19.9279 12.7 19.7743 12.8519 19.7743 13.0375C19.7743 13.2231 19.9279 13.375 20.1157 13.375C23.9562 13.375 27.0798 16.4631 27.0798 20.2566C27.0798 20.4422 27.23 20.5941 27.4212 20.5941C27.6089 20.5941 27.7626 20.4422 27.7626 20.2566C27.7626 16.0885 24.3317 12.7 20.1157 12.7ZM23.4509 23.8139L23.0037 24.0535C22.2493 24.4619 21.6622 25.5812 20.7312 24.7375L18.3001 22.3L16.2 20.2566C15.1449 18.9235 16.3264 18.6062 16.7394 17.857L16.9818 17.4182C17.2549 16.9187 17.3539 16.3585 17.272 15.7982C17.1934 15.238 16.9374 14.7284 16.5278 14.3234C16.0294 13.8306 15.3671 13.5606 14.6604 13.5606C13.9538 13.5606 13.2881 13.8306 12.7896 14.3234L12.6156 14.4989C11.6938 15.4101 11.588 16.9795 12.3151 18.9235C13.0013 20.7797 14.3839 22.7912 16.2 24.5867C18.9686 27.3239 22.0513 28.9 24.2634 28.9C25.1373 28.9 25.8781 28.6536 26.4039 28.1339L26.5814 27.9584C27.0764 27.469 27.3529 26.8142 27.3563 26.1089C27.3529 25.4204 27.0695 24.7454 26.5814 24.2627C25.7587 23.4494 24.4717 23.2671 23.4509 23.8139Z" fill="#161C35"/>
</symbol><symbol id="phone-2" viewBox="0 0 45 45">
<path fill-rule="evenodd" clip-rule="evenodd" d="M22.4999 15.0862C19.7035 15.0862 16.9003 15.5588 15.8832 16.5009C15.0393 17.2825 14.758 18.6633 14.6632 19.5375C14.6632 19.5375 14.6501 19.6239 14.6501 19.6611C14.6501 20.0039 14.9444 20.2789 15.3043 20.2789C15.3468 20.2789 16.92 20.1584 17.8685 20.0843C17.8913 20.0811 17.9143 20.0781 17.9372 20.0719C18.2904 20.0627 18.575 19.7908 18.575 19.4541L18.5782 18.237C18.5782 17.8601 18.9021 17.5574 19.3012 17.5574H25.6987C26.0978 17.5574 26.4218 17.8601 26.4218 18.237L26.425 19.4541C26.425 19.7908 26.7095 20.0627 27.0628 20.0719C27.0854 20.0781 27.1085 20.0811 27.1315 20.0843C28.0801 20.1583 29.6533 20.2789 29.6957 20.2789C30.0553 20.2789 30.3499 20.0039 30.3499 19.6611C30.3499 19.6239 30.3368 19.5375 30.3368 19.5375C30.2419 18.6633 29.9609 17.2826 29.117 16.5009C28.0996 15.5588 25.2964 15.0862 22.4999 15.0862ZM22.4999 23.1177C21.7771 23.1177 21.1916 23.6706 21.1916 24.3533C21.1916 25.036 21.7771 25.5889 22.4999 25.5889C23.2228 25.5889 23.8082 25.036 23.8082 24.3533C23.8082 23.6706 23.2228 23.1177 22.4999 23.1177ZM21.5187 20.3375V19.5653C21.5187 19.139 21.1524 18.793 20.7011 18.793C20.2498 18.793 19.8834 19.1391 19.8834 19.5653V20.3375L15.4709 24.7889C15.1669 25.07 14.9771 25.4622 14.9771 25.8948V27.1335C14.9771 27.8162 15.5626 28.3691 16.2854 28.3691H16.6125V29.1414C16.6125 29.5677 16.979 29.9136 17.4302 29.9136C17.8815 29.9136 18.2479 29.5677 18.2479 29.1414V28.3691H26.752V29.1414C26.752 29.5677 27.1182 29.9136 27.5697 29.9136C28.021 29.9136 28.3873 29.5677 28.3873 29.1414V28.3691H28.7144C29.4373 28.3691 30.0227 27.8162 30.0227 27.1335V25.8948C30.0227 25.4622 29.833 25.07 29.5289 24.7889L25.1166 20.3375V19.5653C25.1166 19.139 24.7502 18.793 24.2989 18.793C23.8476 18.793 23.4812 19.1391 23.4812 19.5653V20.3375H21.5187ZM22.4999 21.8821C23.9456 21.8821 25.1166 22.988 25.1166 24.3533C25.1166 25.7187 23.9457 26.8247 22.4999 26.8247C21.0543 26.8247 19.8834 25.7187 19.8834 24.3533C19.8834 22.988 21.0543 21.8821 22.4999 21.8821Z"/>
</symbol><symbol id="plane" viewBox="0 0 22 22">
<g clip-path="url(#clip0)">
<path d="M17.7288 1.1803C16.9593 1.36073 16.1861 1.542 15.8985 2.03873L13.6727 6.41228L1.72096 9.21442L1.23673 10.6118L10.3824 11.4647L8.83072 15.2509L5.36228 16.0641L4.49146 17.5521L6.99368 17.8201L7.27901 19.0371C7.40684 19.4685 7.85552 19.7565 8.2385 19.6667L9.39465 19.3956L10.7349 21.6492L11.6057 20.1611L10.7497 16.5101L13.2609 13.3536L18.0525 21.6468L19.0187 20.5656L16.07 7.9887L18.7779 3.93144C19.069 3.43387 18.8791 2.6238 18.6883 1.80994C18.5938 1.40681 18.1118 1.09051 17.7288 1.1803Z"/>
</g>

</symbol><symbol id="plus" viewBox="0 0 21 21">
<line y1="10" x2="20" y2="10" stroke-width="2"/>
<line x1="10" y1="20" x2="10" stroke-width="2"/>
</symbol><symbol id="purpose-line-mobile" viewBox="0 0 17 287">
<circle cx="14" cy="3" r="3" fill="#1D2E5B"/>
<circle cx="14" cy="284" r="3" fill="#1D2E5B"/>
<rect x="2" y="2" width="11" height="2" fill="#1D2E5B"/>
<rect y="283" width="12" height="2" fill="#1D2E5B"/>
<rect y="285" width="283" height="2" transform="rotate(-90 0 285)" fill="#1D2E5B"/>
</symbol><symbol id="purpose-line-tablet" viewBox="0 0 14 274">
<circle cx="7" cy="7" r="7" fill="#1D2E5B"/>
<circle cx="7" cy="267" r="7" fill="#1D2E5B"/>
<line x1="7" y1="13" x2="7" y2="261" stroke="#1D2E5B" stroke-width="2"/>
</symbol><symbol id="run" viewBox="0 0 22 24">
<path d="M15.4544 6C16.4586 6 17.2726 5.10457 17.2726 4C17.2726 2.89543 16.4586 2 15.4544 2C14.4503 2 13.6362 2.89543 13.6362 4C13.6362 5.10457 14.4503 6 15.4544 6Z"/>
<path d="M14.3428 10.969C14.5514 11.311 14.8508 11.5742 15.2001 11.7227C15.5495 11.8712 15.9319 11.8978 16.2955 11.799L19.31 10.97L18.8709 9.02997L15.8564 9.85897L14.6027 7.79197C14.3349 7.35053 13.9192 7.04354 13.4464 6.93797L9.95002 6.16797C9.55888 6.08162 9.15277 6.13933 8.79441 6.33217C8.43606 6.52502 8.14539 6.84229 7.9673 7.23497L6.46002 10.551L8.08639 11.446L9.59366 8.12897L11.3818 8.52297L6.7582 17H2.72729V19H6.7582C7.39275 19 7.99002 18.628 8.3173 18.029L10.0609 14.833L14.76 15.867L16.4109 21.316L18.1346 20.683L16.4846 15.235C16.3827 14.9005 16.2026 14.6014 15.9622 14.3679C15.7219 14.1345 15.4298 13.9748 15.1155 13.905L12.3527 13.298L13.9637 10.344L14.3428 10.969Z"/>
</symbol><symbol id="suboption-check" viewBox="0 0 24 24">
<path d="M10.3868 17.1809L7 13.5V13V12C7 12.0409 7 11.9591 7 12C7 11.7852 7.00007 11.5 7.00007 11.5V10.5L10.3774 13.7561C10.4931 13.8776 10.6816 13.8761 10.7974 13.7547L18.0001 6V8.07271V9C18.0001 9.5 18.0001 9.5 18.0001 9.5L11.8084 16.1208L11.8097 16.1222L10.8068 17.1795C10.691 17.3009 10.5026 17.3009 10.3868 17.1809Z" fill="#161C35"/>
</symbol><symbol id="switcher-arrow" viewBox="0 0 14 20">
<path d="M0.898682 10L10.6487 1.33974L10.6487 18.6603L0.898682 10Z" fill="#1D2E5B"/>
</symbol><symbol id="three-dots" viewBox="0 0 30 6">
<circle cx="3" cy="3" r="3" fill="#192144"/>
<circle cx="15" cy="3" r="3" fill="#192144"/>
<circle cx="27" cy="3" r="3" fill="#192144"/>
</symbol><symbol id="tooltip-icon" viewBox="0 0 12 8">
<path d="M6 0L11.9501 7.5H0.0498943L6 0Z" fill="#101D41"/>
</symbol><symbol id="view-more" viewBox="0 0 18 18">
<rect y="8.30762" width="18" height="1.38461" rx="0.692307" fill="#1D2E5B"/>
<rect x="8.30774" y="18" width="18" height="1.38461" rx="0.692307" transform="rotate(-90 8.30774 18)" fill="#1D2E5B"/>
</symbol><symbol id="vkontakte" viewBox="0 0 45 45">
<path d="M28.7664 28.8547C28.219 28.8424 27.6854 28.6817 27.2232 28.3898C26.7407 28.0655 26.2975 27.6867 25.9026 27.2609C25.5761 26.9363 25.0345 26.3903 24.8268 26.3903C24.619 26.3903 24.4706 27.0691 24.478 27.5487C24.4812 27.8797 24.3564 28.1993 24.1293 28.4415C23.8712 28.6512 23.5561 28.7796 23.2242 28.8104H21.7997C19.7522 28.7656 17.7918 27.9784 16.2871 26.5969C13.5568 24.1104 11.2122 19.3587 11.1158 19.1521C11.0238 18.9795 10.9853 18.7837 11.0051 18.5893C11.0249 18.395 11.1021 18.2108 11.2271 18.0601C11.5099 17.8255 11.868 17.6999 12.2361 17.7059H15.2632H15.3522C15.6027 17.7423 15.8428 17.8302 16.0571 17.9642C16.2587 18.0986 16.4202 18.2847 16.5245 18.5028C16.8444 19.1838 17.2113 19.8421 17.6226 20.4728C18.5945 21.9485 19.0248 22.2879 19.1806 22.3617C19.354 21.6698 19.4017 20.9527 19.3216 20.2441C19.3476 19.9214 19.2941 19.5972 19.1658 19.2996C19.0029 19.1701 18.8029 19.0951 18.5945 19.0857L18.0529 18.5766C17.949 18.0896 18.4906 17.669 18.869 17.5067C19.6241 17.2714 20.4164 17.1764 21.2061 17.2263H21.7329C22.2686 17.2124 22.8041 17.262 23.328 17.3739C24.5893 17.6395 24.5448 18.6503 24.4929 19.8161C24.4929 20.1555 24.4558 20.554 24.4558 21.0114C24.4558 21.1221 24.4558 21.2402 24.4558 21.3656C24.4266 21.6868 24.4492 22.0106 24.5226 22.3248C25.1402 21.8109 25.6604 21.1912 26.0584 20.4949C26.4879 19.8366 26.865 19.1458 27.1861 18.429C27.2839 18.2023 27.4516 18.0123 27.6649 17.8863C27.8782 17.7603 28.1262 17.7049 28.3732 17.728H31.5487C31.6425 17.7191 31.7369 17.7191 31.8306 17.728C32.5726 17.728 33.0103 17.942 33.1884 18.3552C33.3664 18.7684 33.3145 19.58 31.4374 21.7566L30.6955 22.5904C30.336 22.9375 30.0264 23.3323 29.7755 23.7636C30.0565 24.0813 30.3754 24.3637 30.7251 24.6047C31.5778 25.2437 32.3283 26.0074 32.951 26.8699C33.097 27.0376 33.1925 27.2428 33.2266 27.4621C33.2608 27.6813 33.2321 27.9057 33.1439 28.1094C32.9884 28.3351 32.7803 28.5201 32.5375 28.6486C32.2946 28.777 32.0241 28.8452 31.749 28.8473L28.9371 28.8842L28.7664 28.8547ZM24.8268 25.2835C25.4945 25.2835 26.0732 25.8664 26.689 26.4788C27.0217 26.8401 27.3951 27.1619 27.8019 27.438C28.1096 27.6415 28.4711 27.7494 28.8406 27.7479H28.9148L31.7342 27.711C31.8732 27.7031 32.0094 27.668 32.1348 27.6077L32.0606 27.4897C31.499 26.7285 30.8292 26.0525 30.0722 25.4827C29.1893 24.7449 28.7368 24.3981 28.6848 23.83C28.6329 23.2618 29.0484 22.7675 29.8793 21.8304L30.6213 21.0114C31.2477 20.376 31.7619 19.6402 32.1422 18.8348C31.9767 18.825 31.8107 18.825 31.6451 18.8348H28.4029C28.3443 18.8218 28.2835 18.8218 28.2248 18.8348C27.8814 19.618 27.4719 20.3708 27.0006 21.0852C25.5984 23.1659 24.938 23.4463 24.4706 23.4463C24.3257 23.4463 24.183 23.4108 24.0551 23.343C23.3132 22.9224 23.3132 21.9854 23.3577 21.3066C23.3577 21.1959 23.3577 21.0852 23.3577 20.9893C23.3577 20.5097 23.3577 20.0965 23.3948 19.7423C23.4542 18.5028 23.3948 18.4954 23.1129 18.429C22.6586 18.3397 22.1958 18.3001 21.7329 18.3109H21.221C20.7499 18.3013 20.2787 18.3259 19.8113 18.3847C19.8821 18.4366 19.9446 18.4988 19.9968 18.5692C20.3028 19.049 20.4554 19.6098 20.4345 20.1777C20.531 21.3951 20.479 22.9815 19.6926 23.3651C19.5533 23.4299 19.4011 23.4627 19.2474 23.4611C18.5574 23.4611 17.8748 22.8118 16.71 21.0557C16.263 20.3833 15.8638 19.6807 15.5155 18.9529L15.4561 18.8791C15.3812 18.8411 15.3013 18.8138 15.2187 18.7979H12.251H12.199C12.6368 19.6981 14.7142 23.6824 17.0364 25.7705C18.3404 26.9619 20.0299 27.6502 21.7997 27.711H23.1722C23.2422 27.6962 23.3097 27.6713 23.3726 27.6372C23.3726 27.6372 23.3726 27.6372 23.3726 27.5708C23.3726 27.3716 23.3726 25.6524 24.5448 25.3573C24.6356 25.3218 24.7302 25.297 24.8268 25.2835Z" fill="#192144"/>
</symbol></svg>